<svg xmlns="http://www.w3.org/2000/svg" viewBox="0 0 1100 720" font-family="system-ui, -apple-system, sans-serif">
  <defs>
    <marker id="a1" viewBox="0 0 10 6" refX="10" refY="3" markerWidth="10" markerHeight="6" orient="auto"><path d="M0,0 L10,3 L0,6 Z" fill="#6366f1"/></marker>
    <marker id="a2" viewBox="0 0 10 6" refX="10" refY="3" markerWidth="10" markerHeight="6" orient="auto"><path d="M0,0 L10,3 L0,6 Z" fill="#475569"/></marker>
    <marker id="a3" viewBox="0 0 10 6" refX="10" refY="3" markerWidth="10" markerHeight="6" orient="auto"><path d="M0,0 L10,3 L0,6 Z" fill="#f59e0b"/></marker>
    <marker id="a4" viewBox="0 0 10 6" refX="10" refY="3" markerWidth="10" markerHeight="6" orient="auto"><path d="M0,0 L10,3 L0,6 Z" fill="#10b981"/></marker>
    <marker id="a5" viewBox="0 0 10 6" refX="10" refY="3" markerWidth="10" markerHeight="6" orient="auto"><path d="M0,0 L10,3 L0,6 Z" fill="#f87171"/></marker>
    <marker id="a6" viewBox="0 0 10 6" refX="10" refY="3" markerWidth="10" markerHeight="6" orient="auto"><path d="M0,0 L10,3 L0,6 Z" fill="#8b5cf6"/></marker>
  </defs>

  <rect width="1100" height="720" rx="12" fill="#0f172a"/>

  <!-- Title -->
  <text x="550" y="30" text-anchor="middle" fill="#e2e8f0" font-size="17" font-weight="bold">Vibe Coding 融入现有开发流程</text>
  <text x="550" y="50" text-anchor="middle" fill="#64748b" font-size="11">OpenSpec / Speckit · MCP Server · Agent Skills</text>

  <!-- ================================================================ -->
  <!-- Spec as Source of Truth — golden backbone bar across the top      -->
  <!-- ================================================================ -->
  <rect x="30" y="65" width="1040" height="48" rx="10" fill="#451a03" stroke="#f59e0b" stroke-width="1.5"/>
  <text x="550" y="86" text-anchor="middle" fill="#fef3c7" font-size="13" font-weight="bold">Spec — Source of Truth（贯穿全链路）</text>
  <text x="550" y="103" text-anchor="middle" fill="#d97706" font-size="9">OpenSpec / Speckit 管理 · 接口签名 · 领域约束 · 错误码 · 用例场景 · 版本化 Git 管理 · Lint · Breaking Change 检测</text>

  <!-- Vertical golden lines dropping from Spec bar to each stage -->
  <line x1="140" y1="113" x2="140" y2="140" stroke="#f59e0b" stroke-width="1.2" stroke-dasharray="4,3" marker-end="url(#a3)"/>
  <line x1="550" y1="113" x2="550" y2="145" stroke="#f59e0b" stroke-width="1.5" marker-end="url(#a3)"/>
  <line x1="830" y1="113" x2="830" y2="140" stroke="#f59e0b" stroke-width="1.2" stroke-dasharray="4,3" marker-end="url(#a3)"/>
  <line x1="1000" y1="113" x2="1000" y2="140" stroke="#f59e0b" stroke-width="1.2" stroke-dasharray="4,3" marker-end="url(#a3)"/>

  <text x="140" y="135" text-anchor="middle" fill="#fbbf24" font-size="7">需求→Spec</text>
  <text x="550" y="140" text-anchor="middle" fill="#fbbf24" font-size="7">驱动开发</text>
  <text x="830" y="135" text-anchor="middle" fill="#fbbf24" font-size="7">驱动校验</text>
  <text x="1000" y="135" text-anchor="middle" fill="#fbbf24" font-size="7">验证一致性</text>

  <!-- ================================================================ -->
  <!-- MAIN PIPELINE: 4 stages horizontally                              -->
  <!-- ================================================================ -->

  <!-- Backbone arrow -->
  <line x1="30" y1="330" x2="1070" y2="330" stroke="#1e293b" stroke-width="36" stroke-linecap="round"/>
  <line x1="30" y1="330" x2="1070" y2="330" stroke="#334155" stroke-width="1.5"/>

  <!-- ================================================================ -->
  <!-- STAGE 1: 需求接入 (TB)                                           -->
  <!-- ================================================================ -->
  <rect x="40" y="150" width="180" height="145" rx="12" fill="#1e293b" stroke="#3b82f6" stroke-width="1.2"/>
  <text x="130" y="172" text-anchor="middle" fill="#93c5fd" font-size="11" font-weight="bold">需求接入</text>

  <rect x="52" y="182" width="155" height="22" rx="4" fill="#334155"/>
  <text x="62" y="197" fill="#64748b" font-size="9">原：手动查看 TB 需求</text>

  <rect x="52" y="210" width="155" height="38" rx="4" fill="#7c3aed" opacity="0.3"/>
  <text x="62" y="225" fill="#c4b5fd" font-size="9" font-weight="bold">改：MCP 自动拉取</text>
  <text x="62" y="240" fill="#a78bfa" font-size="8">需求ID→详情·设计稿·验收标准</text>

  <text x="130" y="275" text-anchor="middle" fill="#64748b" font-size="8" font-style="italic">AI 结构化整理 → 输入 Spec</text>

  <!-- Stage label on pipeline -->
  <rect x="65" y="310" width="130" height="40" rx="8" fill="#1e3a5f" stroke="#3b82f6" stroke-width="1.2"/>
  <text x="130" y="335" text-anchor="middle" fill="#93c5fd" font-size="12" font-weight="bold">TB 需求</text>

  <line x1="195" y1="330" x2="250" y2="330" stroke="#475569" stroke-width="2" marker-end="url(#a2)"/>

  <!-- ================================================================ -->
  <!-- STAGE 2: 开发阶段 — BIG CENTER with proper circular loop        -->
  <!-- Box: x=255,y=150, w=420, h=320                                  -->
  <!-- Node A top-center:   cx=465, cy=220  (Spec拆Task)              -->
  <!-- Node B bottom-right: cx=577, cy=345  (Vibe Coding)              -->
  <!-- Node C bottom-left:  cx=352, cy=345  (测试验证)                 -->
  <!-- ================================================================ -->
  <rect x="255" y="150" width="420" height="320" rx="16" fill="#1e1338" opacity="0.7" stroke="#8b5cf6" stroke-width="1.5"/>
  <text x="465" y="173" text-anchor="middle" fill="#c4b5fd" font-size="13" font-weight="bold">开发阶段（开发者 + AI 协作）</text>

  <!-- Node A: Spec 拆解 Task — top center -->
  <rect x="375" y="197" width="180" height="46" rx="10" fill="#7c3aed" opacity="0.9"/>
  <text x="465" y="216" text-anchor="middle" fill="#fff" font-size="11" font-weight="bold">Spec 拆解 Task</text>
  <text x="465" y="232" text-anchor="middle" fill="#ddd6fe" font-size="9">AI 按 Spec 条目拆分子任务</text>

  <!-- Node B: Vibe Coding — bottom right -->
  <rect x="490" y="322" width="175" height="46" rx="10" fill="#7c3aed" opacity="0.9"/>
  <text x="577" y="341" text-anchor="middle" fill="#fff" font-size="11" font-weight="bold">Vibe Coding</text>
  <text x="577" y="357" text-anchor="middle" fill="#ddd6fe" font-size="9">AI 生成代码 · 人审查</text>

  <!-- Node C: 测试验证 — bottom left -->
  <rect x="265" y="322" width="175" height="46" rx="10" fill="#7c3aed" opacity="0.9"/>
  <text x="352" y="341" text-anchor="middle" fill="#fff" font-size="11" font-weight="bold">测试与验证</text>
  <text x="352" y="357" text-anchor="middle" fill="#ddd6fe" font-size="9">Spec 驱动 · AI 补充边界</text>

  <!-- Circular arrows clockwise: A→B→C→A -->
  <!-- A right-bottom (555,243) curving to B top (560,322) -->
  <path d="M 548,243 Q 600,275 580,322" fill="none" stroke="#6366f1" stroke-width="2" marker-end="url(#a1)"/>
  <!-- B left (490,345) curving to C right (440,345) via bottom arc -->
  <path d="M 490,358 Q 465,395 440,358" fill="none" stroke="#6366f1" stroke-width="2" marker-end="url(#a1)"/>
  <!-- C top (352,322) curving to A left-bottom (382,243) -->
  <path d="M 352,322 Q 330,275 382,243" fill="none" stroke="#6366f1" stroke-width="2" marker-end="url(#a1)"/>

  <!-- Cycle icon center of triangle approx (465,300) -->
  <text x="465" y="302" text-anchor="middle" fill="#a78bfa" font-size="26">↻</text>
  <text x="465" y="318" text-anchor="middle" fill="#a78bfa" font-size="8">多轮迭代</text>

  <!-- Dev + AI badges -->
  <rect x="278" y="385" width="68" height="22" rx="5" fill="#4c1d95" opacity="0.8"/>
  <text x="312" y="400" text-anchor="middle" fill="#ddd6fe" font-size="9">👤 开发者</text>
  <rect x="356" y="385" width="68" height="22" rx="5" fill="#4c1d95" opacity="0.8"/>
  <text x="390" y="400" text-anchor="middle" fill="#ddd6fe" font-size="9">🤖 AI</text>
  <text x="448" y="400" fill="#8b5cf6" font-size="9" font-weight="bold">协作</text>

  <!-- What dev stage uses + interacts with -->
  <rect x="278" y="415" width="370" height="38" rx="6" fill="#0f172a" stroke="#475569" stroke-width="0.5"/>
  <text x="288" y="431" fill="#fbbf24" font-size="8">Uses: Agent Skills（规范/业务知识）· MCP Server · OpenSpec/Speckit</text>
  <text x="288" y="446" fill="#64748b" font-size="8">交互: TB（需求详情/状态回写）· Git（specs + code push/pull）</text>


  <!-- Arrow out: Dev → CI/CD via PR -->
  <line x1="675" y1="330" x2="720" y2="330" stroke="#475569" stroke-width="2" marker-end="url(#a2)"/>
  <text x="698" y="320" text-anchor="middle" fill="#94a3b8" font-size="8">PR</text>

  <!-- ================================================================ -->
  <!-- STAGE 3: CI/CD                                                    -->
  <!-- ================================================================ -->
  <rect x="725" y="150" width="190" height="145" rx="12" fill="#1e293b" stroke="#0ea5e9" stroke-width="1.2"/>
  <text x="820" y="172" text-anchor="middle" fill="#7dd3fc" font-size="11" font-weight="bold">CI/CD 质量门</text>

  <rect x="737" y="182" width="165" height="22" rx="4" fill="#334155"/>
  <text x="747" y="197" fill="#64748b" font-size="9">原：基础 lint + 测试</text>

  <rect x="737" y="210" width="165" height="45" rx="4" fill="#0369a1" opacity="0.3"/>
  <text x="747" y="225" fill="#7dd3fc" font-size="9" font-weight="bold">改：Spec 驱动质量门</text>
  <text x="747" y="238" fill="#38bdf8" font-size="8">Spec↔Code 一致性校验</text>
  <text x="747" y="250" fill="#38bdf8" font-size="8">Sonar · AI Review · 合同测试</text>

  <text x="820" y="280" text-anchor="middle" fill="#4ade80" font-size="9" font-weight="bold">✓ 全部通过 → 合并</text>

  <!-- Stage label on pipeline -->
  <rect x="755" y="310" width="130" height="40" rx="8" fill="#0c2d48" stroke="#0ea5e9" stroke-width="1.2"/>
  <text x="820" y="335" text-anchor="middle" fill="#7dd3fc" font-size="12" font-weight="bold">CI/CD</text>

  <line x1="885" y1="330" x2="925" y2="330" stroke="#475569" stroke-width="2" marker-end="url(#a2)"/>

  <!-- ================================================================ -->
  <!-- STAGE 4: K8S 部署                                                 -->
  <!-- ================================================================ -->
  <rect x="930" y="150" width="140" height="145" rx="12" fill="#1e293b" stroke="#10b981" stroke-width="1.2"/>
  <text x="1000" y="172" text-anchor="middle" fill="#6ee7b7" font-size="11" font-weight="bold">发布上线</text>

  <rect x="942" y="182" width="116" height="22" rx="4" fill="#334155"/>
  <text x="952" y="197" fill="#64748b" font-size="9">原：手动部署/回填</text>

  <rect x="942" y="210" width="116" height="45" rx="4" fill="#047857" opacity="0.3"/>
  <text x="952" y="225" fill="#6ee7b7" font-size="9" font-weight="bold">改：自动部署</text>
  <text x="952" y="238" fill="#34d399" font-size="8">构建→K8S→灰度</text>
  <text x="952" y="250" fill="#34d399" font-size="8">MCP 状态回写 TB</text>

  <text x="1000" y="280" text-anchor="middle" fill="#6ee7b7" font-size="8">监控 · 告警 · 回滚</text>

  <!-- Stage label on pipeline -->
  <rect x="935" y="310" width="130" height="40" rx="8" fill="#052e16" stroke="#10b981" stroke-width="1.2"/>
  <text x="1000" y="335" text-anchor="middle" fill="#6ee7b7" font-size="12" font-weight="bold">K8S 部署</text>


  <!-- ================================================================ -->
  <!-- BOTTOM: Foundation                                                -->
  <!-- ================================================================ -->
  <rect x="60" y="545" width="980" height="90" rx="14" fill="#1e293b" stroke="#f59e0b" stroke-width="1" stroke-dasharray="6,3"/>
  <text x="550" y="568" text-anchor="middle" fill="#fcd34d" font-size="12" font-weight="bold">Foundation — Vibe Coding 基础能力</text>

  <rect x="80" y="580" width="280" height="42" rx="8" fill="#78350f" opacity="0.8"/>
  <text x="220" y="598" text-anchor="middle" fill="#fef3c7" font-size="10" font-weight="bold">MCP Server</text>
  <text x="220" y="613" text-anchor="middle" fill="#fde68a" font-size="9">TB 需求拉取 · 设计资源 · 状态回写</text>

  <rect x="390" y="580" width="280" height="42" rx="8" fill="#78350f" opacity="0.8"/>
  <text x="530" y="598" text-anchor="middle" fill="#fef3c7" font-size="10" font-weight="bold">Agent Skills</text>
  <text x="530" y="613" text-anchor="middle" fill="#fde68a" font-size="9">Coding Style · Guideline · 业务知识 · Prompt 库</text>

  <rect x="700" y="580" width="320" height="42" rx="8" fill="#78350f" opacity="0.8"/>
  <text x="860" y="598" text-anchor="middle" fill="#fef3c7" font-size="10" font-weight="bold">OpenSpec / Speckit</text>
  <text x="860" y="613" text-anchor="middle" fill="#fde68a" font-size="9">Spec 模板 · Lint · Codegen · Diff · Breaking Change</text>

  <!-- Foundation → Dev stage -->
  <path d="M 400,580 Q 420,540 440,460" fill="none" stroke="#f59e0b" stroke-width="1" stroke-dasharray="4,3" marker-end="url(#a3)"/>
  <!-- Foundation → CI/CD -->
  <path d="M 820,580 Q 820,540 820,350" fill="none" stroke="#f59e0b" stroke-width="1" stroke-dasharray="4,3" marker-end="url(#a3)"/>
  <!-- Foundation → 需求 -->
  <path d="M 150,580 Q 140,540 135,350" fill="none" stroke="#f59e0b" stroke-width="1" stroke-dasharray="4,3" marker-end="url(#a3)"/>

  <!-- ================================================================ -->
  <!-- Key message -->
  <!-- ================================================================ -->
  <rect x="200" y="655" width="700" height="38" rx="8" fill="#0f172a" stroke="#475569" stroke-width="0.5"/>
  <text x="550" y="677" text-anchor="middle" fill="#94a3b8" font-size="10">现有流程骨架不变（TB→Git→CI/CD→K8S），Spec 贯穿全链路作为 Source of Truth，在每个环节注入 AI 能力</text>

  <!-- Legend -->
  <rect x="60" y="700" width="980" height="16" rx="4" fill="none"/>
  <line x1="80" y1="712" x2="100" y2="712" stroke="#f59e0b" stroke-width="1.5"/>
  <text x="108" y="716" fill="#fbbf24" font-size="7">Spec 驱动</text>
  <line x1="170" y1="712" x2="190" y2="712" stroke="#6366f1" stroke-width="2"/>
  <text x="198" y="716" fill="#a78bfa" font-size="7">开发迭代</text>
  <line x1="255" y1="712" x2="275" y2="712" stroke="#475569" stroke-width="1.5"/>
  <text x="283" y="716" fill="#64748b" font-size="7">流水线流转</text>
  <line x1="350" y1="712" x2="370" y2="712" stroke="#f59e0b" stroke-width="1" stroke-dasharray="4,3"/>
  <text x="458" y="716" fill="#fbbf24" font-size="7">Foundation 供给</text>
  <rect x="540" y="706" width="35" height="12" rx="3" fill="#334155"/>
  <text x="557" y="716" text-anchor="middle" fill="#64748b" font-size="7">原</text>
  <text x="585" y="716" fill="#64748b" font-size="7">= 改造前</text>
  <rect x="630" y="706" width="35" height="12" rx="3" fill="#7c3aed"/>
  <text x="647" y="716" text-anchor="middle" fill="#fff" font-size="7">改</text>
  <text x="675" y="716" fill="#a78bfa" font-size="7">= Vibe Coding 改造</text>
</svg>
